<?xml version="1.0" encoding="utf-8"?>
<!-- Svg Vector Icons : http://www.onlinewebfonts.com/icon -->
<!DOCTYPE svg PUBLIC "-//W3C//DTD SVG 1.1//EN" "http://www.w3.org/Graphics/SVG/1.1/DTD/svg11.dtd">
<svg version="1.1" xmlns="http://www.w3.org/2000/svg" xmlns:xlink="http://www.w3.org/1999/xlink" x="0px" y="0px" viewBox="0 0 1000 1000" enable-background="new 0 0 1000 1000" xml:space="preserve">
<metadata> Svg Vector Icons : http://www.onlinewebfonts.com/icon </metadata>
<g><path d="M34.5,10v980V10z"/><path d="M59,10v980V10z"/><path d="M83.5,10v980V10z"/><path d="M108,10v980V10z"/><path d="M132.5,10v980V10z"/><path d="M157,10v980V10z"/><path d="M181.5,10v980V10z"/><path d="M206,10v980V10z"/><path d="M230.5,10v980V10z"/><path d="M255,10v980V10z"/><path d="M279.5,10v980V10z"/><path d="M304,10v980V10z"/><path d="M328.5,10v980V10z"/><path d="M353,10v980V10z"/><path d="M377.5,10v980V10z"/><path d="M402,10v980V10z"/><path d="M426.5,10v980V10z"/><path d="M451,10v980V10z"/><path d="M475.5,10v980V10z"/><path d="M500,10v980V10z"/><path d="M524.5,10v980V10z"/><path d="M549,10v980V10z"/><path d="M573.5,10v980V10z"/><path d="M598,10v980V10z"/><path d="M622.5,10v980V10z"/><path d="M647,10v980V10z"/><path d="M671.5,10v980V10z"/><path d="M696,10v980V10z"/><path d="M720.5,10v980V10z"/><path d="M745,10v980V10z"/><path d="M769.5,10v980V10z"/><path d="M794,10v980V10z"/><path d="M818.5,10v980V10z"/><path d="M843,10v980V10z"/><path d="M867.5,10v980V10z"/><path d="M892,10v980V10z"/><path d="M916.5,10v980V10z"/><path d="M941,10v980V10z"/><path d="M965.5,10v980V10z"/><path d="M10,34.5h980H10z"/><path d="M10,59h980H10z"/><path d="M10,83.5h980H10z"/><path d="M10,108h980H10z"/><path d="M10,132.5h980H10z"/><path d="M10,157h980H10z"/><path d="M10,181.5h980H10z"/><path d="M10,206h980H10z"/><path d="M10,230.5h980H10z"/><path d="M10,255h980H10z"/><path d="M10,279.5h980H10z"/><path d="M10,304h980H10z"/><path d="M10,328.5h980H10z"/><path d="M10,353h980H10z"/><path d="M10,377.5h980H10z"/><path d="M10,402h980H10z"/><path d="M10,426.5h980H10z"/><path d="M10,451h980H10z"/><path d="M10,475.5h980H10z"/><path d="M10,500h980H10z"/><path d="M10,524.5h980H10z"/><path d="M10,549h980H10z"/><path d="M10,573.5h980H10z"/><path d="M10,598h980H10z"/><path d="M10,622.5h980H10z"/><path d="M10,647h980H10z"/><path d="M10,671.5h980H10z"/><path d="M10,696h980H10z"/><path d="M10,720.5h980H10z"/><path d="M10,745h980H10z"/><path d="M10,769.5h980H10z"/><path d="M10,794h980H10z"/><path d="M10,818.5h980H10z"/><path d="M10,843h980H10z"/><path d="M10,867.5h980H10z"/><path d="M10,892h980H10z"/><path d="M10,916.5h980H10z"/><path d="M10,941h980H10z"/><path d="M10,965.5h980H10z"/><path d="M700.4,119.5C644.5,79.1,574.4,59,489.9,59c-64.3,0-118.5,14.2-162.5,42.5c-69.9,44.4-107.1,119.8-111.6,226.1h162c0-31,9-60.8,27.1-89.5c18.1-28.7,48.8-43.1,92-43.1c44,0,74.3,11.7,90.8,34.9c16.6,23.4,24.9,49.2,24.9,77.5c0,24.6-12.3,47.2-27.2,67.7c-8.2,12-19,22.9-32.4,33c0,0-87.9,56.4-126.5,101.6c-22.4,26.3-24.4,65.6-26.4,122c-0.1,4,1.4,12.3,15.4,12.3c14.1,0,113.5,0,126,0c12.5,0,15.1-9.3,15.3-13.3c0.9-20.5,3.2-31,7-42.9c7.1-22.4,26.3-41.9,48-58.8l44.6-30.8c40.2-31.4,72.4-57.1,86.5-77.3c24.2-33.2,41.2-74.1,41.2-122.5C784.2,219.4,756.2,159.7,700.4,119.5L700.4,119.5z M487.3,741.3c-55.9-1.7-101.9,36.9-103.7,97.5c-1.8,60.5,42,100.5,97.9,102.2c58.3,1.7,103.1-35.7,104.9-96.2C588.2,784.2,545.6,743,487.3,741.3L487.3,741.3z"/></g>
</svg>