<?xml version="1.0" encoding="utf-8"?>
<!-- Svg Vector Icons : http://www.onlinewebfonts.com/icon -->
<!DOCTYPE svg PUBLIC "-//W3C//DTD SVG 1.1//EN" "http://www.w3.org/Graphics/SVG/1.1/DTD/svg11.dtd">
<svg version="1.1" xmlns="http://www.w3.org/2000/svg" xmlns:xlink="http://www.w3.org/1999/xlink" x="0px" y="0px" viewBox="0 0 1000 1000" enable-background="new 0 0 1000 1000" xml:space="preserve">
<metadata> Svg Vector Icons : http://www.onlinewebfonts.com/icon </metadata>
<g><path d="M988.5,34.7c-0.1-6.3-2.5-12.2-7-16.6c-4.4-4.4-10.4-6.9-16.7-7c-95.1-0.7-352.4-0.7-381.4-0.7l-0.3,0c-7.8,0-14.2,6.4-14.2,14.2v57.1c0,3.8,1.5,7.4,4.2,10.1c2.7,2.7,6.3,4.2,10.1,4.2h257.6L664.3,272.4L500.4,108.5c-10.9-10.9-28.7-10.9-39.6,0l-23.3,23.3c-10.9,10.9-10.9,28.7,0,39.6l163.9,163.9l-55.8,55.8c-130.7-99.9-318.4-90.2-438,29.4c-130.2,130.2-130.2,341.3,0,471.5c130.2,130.2,341.3,130.2,471.5,0c119.5-119.5,129.3-307.2,29.4-438l55.8-55.8l163.9,163.9c10.9,10.9,28.6,10.9,39.6,0l23.3-23.3c10.9-10.9,10.9-28.7,0-39.6L727.2,335.3l176.5-176.5l0.4,257.7c0,3.8,1.5,7.4,4.2,10c2.7,2.7,6.3,4.2,10.1,4.2h57.4c3.8,0,7.4-1.5,10.1-4.2c2.7-2.7,4.2-6.3,4.2-10C990,413.7,989.4,134.2,988.5,34.7z M510.9,823.6C466.1,868.4,406.7,893,343.4,893S220.7,868.4,176,823.6c-44.7-44.7-69.4-104.2-69.4-167.5c0-63.3,24.6-122.7,69.4-167.5c44.7-44.7,104.2-69.4,167.5-69.4s122.7,24.6,167.5,69.4c44.7,44.7,69.4,104.2,69.4,167.5C580.2,719.5,555.6,778.9,510.9,823.6z"/></g>
</svg>