<svg version="1.1" xmlns="http://www.w3.org/2000/svg" xmlns:xlink="http://www.w3.org/1999/xlink" x="0px" y="0px" viewBox="0 0 1000 1000" enable-background="new 0 0 1000 1000" xml:space="preserve" height="23" width="23">
<metadata> Svg Vector Icons : http://www.onlinewebfonts.com/icon </metadata>
<g><g transform="translate(0.000000,512.000000) scale(0.100000,-0.100000)"><path d="M2535.4,4991.3c-124.4-34.5-289-147.4-369.4-256.5c-36.4-49.8-84.2-145.5-105.3-214.4c-38.3-122.5-38.3-160.8-34.5-4450.4l5.7-4326l55.5-114.9c72.7-145.5,201-273.7,346.5-346.5l114.8-55.5l2392.7-5.7c1707.5-3.8,2421.4,0,2492.3,15.3c132.1,28.7,313.9,147.4,396.2,262.2c38.3,49.8,86.2,147.4,107.2,214.4c38.3,118.7,38.3,170.4,38.3,4404.5c0,4234.1,0,4285.8-38.3,4404.5c-70.8,222-250.8,402-469,469C7339.9,5029.6,2677,5029.6,2535.4,4991.3z M7441.4,4721.4c45.9-17.2,112.9-57.4,147.4-91.9c126.3-122.5,118.7,187.6,118.7-4511.7c0-4707,7.6-4389.2-120.6-4513.6c-128.3-124.4-13.4-118.7-2588-118.7c-2574.6,0-2459.7-5.7-2588,118.7c-128.2,124.4-120.6-193.3-120.6,4513.6c0,4708.8-7.7,4389.2,120.6,4515.5c126.3,120.6-13.4,114.8,2580.3,116.8C7075.8,4750.1,7368.6,4746.3,7441.4,4721.4z"></path><path d="M2621.5,3984.4l-44-17.2V493c0-1910.4,5.7-3485.7,11.5-3502.9c11.5-26.8,241.2-30.6,2409.9-30.6c2168.8,0,2398.4,3.8,2409.9,30.6c19.1,51.7,13.4,6944.6-7.6,6975.2c-15.3,24.9-304.4,28.7-2377.4,32.5C3639.8,3999.7,2646.4,3994,2621.5,3984.4z M7282.5,3578.6l5.7-283.3h-964.7c-951.3,0-1008.8-3.8-1008.8-59.3c0-7.7,13.4-28.7,30.6-44c26.8-26.8,141.7-30.6,985.8-30.6h955.2V127.4v-3034H4998.9H2711.5v382.8v382.8h1012.6c899.7,0,1014.5,3.8,1037.5,30.6c17.2,21,19.1,38.3,3.8,61.2c-17.2,28.7-111,32.5-1037.5,38.3l-1016.4,3.8V919.9v2928.7l63.2,5.7c32.5,3.8,1060.5,5.7,2281.7,5.7h2220.4L7282.5,3578.6z"></path><path d="M5178.8-2037.5c-17.2-21.1-19.1-38.3-3.8-61.3c17.2-28.7,65.1-32.5,340.7-38.3c220.1-3.8,329.2,1.9,346.5,17.2c36.4,28.7,34.4,86.1-3.8,101.4c-17.2,5.7-170.3,11.5-342.6,11.5C5255.4-2006.9,5199.9-2012.7,5178.8-2037.5z"></path><path d="M4840-3304.7c-174.2-70.8-291-239.3-291-424.9c0-137.8,49.8-241.2,158.9-336.9c183.8-162.7,398.1-162.7,581.9,0c109.1,95.7,158.9,199.1,158.9,336.9c0,137.8-49.8,241.2-158.9,336.9C5152-3270.3,5000.8-3241.6,4840-3304.7z M5176.9-3455.9c95.7-70.8,137.8-155,137.8-273.7c0-82.3-11.5-124.4-42.1-172.3c-76.6-111-137.8-143.6-273.7-143.6c-135.9,0-197.1,32.5-271.8,143.6c-51.7,74.7-59.3,239.3-17.2,321.6c34.5,65.1,101.5,130.2,164.6,155.1C4947.2-3394.7,5117.6-3411.9,5176.9-3455.9z"></path></g></g>
</svg>