<svg version="1.1" xmlns="http://www.w3.org/2000/svg" xmlns:xlink="http://www.w3.org/1999/xlink" x="0px" y="0px" viewBox="0 0 1000 1000" enable-background="new 0 0 1000 1000" xml:space="preserve" height="32" width="32">
<metadata> Svg Vector Icons : http://www.onlinewebfonts.com/icon </metadata>
<g><path d="M543.6,103.2c-122.7-121.8-321.1-121-442.8,1.7C-21,227.7-20.1,426,102.6,547.7c96.6,95.8,239.6,114.5,355.7,58.8l87.7,87l147.6-0.6l0.6,147.6l147.6-0.5l0.6,147.6l147.6-0.6l-0.6-147.6L605.3,458.4C660.1,341.8,640.3,199,543.6,103.2z M323.1,325.4c-45.7,46-120,46.4-166.1,0.7c-46.1-45.7-46.3-120-0.7-166c45.7-46,120-46.4,166.1-0.7C368.5,205.1,368.8,279.4,323.1,325.4z"></path></g>
</svg>