<svg version="1.1" xmlns="http://www.w3.org/2000/svg" xmlns:xlink="http://www.w3.org/1999/xlink" x="0px" y="0px" viewBox="0 0 1000 1000" enable-background="new 0 0 1000 1000" xml:space="preserve" height="23" width="23">
<metadata> Svg Vector Icons : http://www.onlinewebfonts.com/icon </metadata>
<g><g><path d="M150,762.5v105c0,4.7-1.7,8.8-5.2,12.3c-3.5,3.5-7.6,5.2-12.3,5.2h-105c-4.7,0-8.8-1.7-12.3-5.2c-3.5-3.5-5.2-7.6-5.2-12.3v-105c0-4.7,1.7-8.8,5.2-12.3s7.6-5.2,12.3-5.2h105c4.7,0,8.8,1.7,12.3,5.2C148.3,753.7,150,757.8,150,762.5z M150,552.5v105c0,4.7-1.7,8.8-5.2,12.3s-7.6,5.2-12.3,5.2h-105c-4.7,0-8.8-1.7-12.3-5.2s-5.2-7.6-5.2-12.3v-105c0-4.7,1.7-8.8,5.2-12.3c3.5-3.5,7.6-5.2,12.3-5.2h105c4.7,0,8.8,1.7,12.3,5.2C148.3,543.7,150,547.8,150,552.5z M150,342.5v105c0,4.7-1.7,8.8-5.2,12.3s-7.6,5.2-12.3,5.2h-105c-4.7,0-8.8-1.7-12.3-5.2s-5.2-7.6-5.2-12.3v-105c0-4.7,1.7-8.8,5.2-12.3c3.5-3.5,7.6-5.2,12.3-5.2h105c4.7,0,8.8,1.7,12.3,5.2C148.3,333.7,150,337.8,150,342.5z M990,762.5v105c0,4.7-1.7,8.8-5.2,12.3c-3.5,3.5-7.6,5.2-12.3,5.2h-735c-4.7,0-8.8-1.7-12.3-5.2c-3.5-3.5-5.2-7.6-5.2-12.3v-105c0-4.7,1.7-8.8,5.2-12.3s7.6-5.2,12.3-5.2h735c4.7,0,8.8,1.7,12.3,5.2C988.3,753.7,990,757.8,990,762.5z M150,132.5v105c0,4.7-1.7,8.8-5.2,12.3c-3.5,3.5-7.6,5.2-12.3,5.2h-105c-4.7,0-8.8-1.7-12.3-5.2s-5.2-7.6-5.2-12.3v-105c0-4.7,1.7-8.8,5.2-12.3s7.6-5.2,12.3-5.2h105c4.7,0,8.8,1.7,12.3,5.2C148.3,123.7,150,127.8,150,132.5z M990,552.5v105c0,4.7-1.7,8.8-5.2,12.3c-3.5,3.5-7.6,5.2-12.3,5.2h-735c-4.7,0-8.8-1.7-12.3-5.2c-3.5-3.5-5.2-7.6-5.2-12.3v-105c0-4.7,1.7-8.8,5.2-12.3c3.5-3.5,7.6-5.2,12.3-5.2h735c4.7,0,8.8,1.7,12.3,5.2C988.3,543.7,990,547.8,990,552.5z M990,342.5v105c0,4.7-1.7,8.8-5.2,12.3c-3.5,3.5-7.6,5.2-12.3,5.2h-735c-4.7,0-8.8-1.7-12.3-5.2c-3.5-3.5-5.2-7.6-5.2-12.3v-105c0-4.7,1.7-8.8,5.2-12.3c3.5-3.5,7.6-5.2,12.3-5.2h735c4.7,0,8.8,1.7,12.3,5.2C988.3,333.7,990,337.8,990,342.5z M990,132.5v105c0,4.7-1.7,8.8-5.2,12.3c-3.5,3.5-7.6,5.2-12.3,5.2h-735c-4.7,0-8.8-1.7-12.3-5.2c-3.5-3.5-5.2-7.6-5.2-12.3v-105c0-4.7,1.7-8.8,5.2-12.3s7.6-5.2,12.3-5.2h735c4.7,0,8.8,1.7,12.3,5.2C988.3,123.7,990,127.8,990,132.5z"></path></g></g>
</svg>