<?xml version="1.0" standalone="no"?>
<!DOCTYPE svg PUBLIC "-//W3C//DTD SVG 1.0//EN" "http://www.w3.org/TR/2001/REC-SVG-20010904/DTD/svg10.dtd">
<svg xmlns="http://www.w3.org/2000/svg" xmlns:xlink="http://www.w3.org/1999/xlink" id="body_1" width="31" height="23">

<g transform="matrix(0.023 0 0 0.023 3.9999995 -0)">
	<g>
        <path d="M500 193.8C 286.3 193.8 101 318.3 10 500.09998C 101 681.89996 286.3 806.39996 500 806.39996C 713.7 806.39996 899 681.89996 990 500.09998C 899 318.2 713.7 193.8 500 193.8zM741.6 356.2C 799.19995 392.90002 848 442.1 884.6 500C 848 557.9 799.19995 607.1 741.6 643.8C 669.3 690 585.7 714.4 500 714.4C 414.3 714.4 330.7 690 258.4 643.9C 200.79999 607.2 152 558 115.399994 500.10004C 152 442.20004 200.79999 393.00003 258.4 356.30005C 262.1 353.90005 265.9 351.60004 269.69998 349.30005C 260.19998 375.50006 254.99998 403.70004 254.99998 433.10004C 254.99998 568.4 364.69998 678.10004 500 678.10004C 635.30005 678.10004 745 568.4 745 433.10004C 745 403.60004 739.8 375.40002 730.3 349.30005C 734.1 351.4 737.9 353.8 741.6 356.2zM500 402.4C 500 453.1 458.9 494.3 408.1 494.3C 357.30002 494.3 316.2 453.19998 316.2 402.4C 316.2 351.69998 357.30002 310.5 408.1 310.5C 458.9 310.5 500 351.6 500 402.4z" stroke="none" fill="#000000" fill-rule="nonzero" />
	</g>
</g>
</svg>