<svg version="1.1" xmlns="http://www.w3.org/2000/svg" xmlns:xlink="http://www.w3.org/1999/xlink" x="0px" y="0px" viewBox="0 0 1000 1000" enable-background="new 0 0 1000 1000" xml:space="preserve" height="23" width="23">
<metadata> Svg Vector Icons : http://www.onlinewebfonts.com/icon </metadata>
<g><g transform="translate(0.000000,511.000000) scale(0.100000,-0.100000)"><path d="M4241.6,4927.6c-866.1-153.1-1406.7-645.2-1606.2-1464.8c-11.6-48.4-29.1-319.7-36.8-606.5L2583,2339l-52.3-48.4c-29.1-27.1-71.7-89.1-94.9-141.4c-38.8-81.4-42.6-124-42.6-381.7c0-249.9,5.8-310,44.6-434c69.8-219,244.1-540.6,393.3-728.5c100.7-125.9,149.2-207.3,191.8-323.6c71.7-195.7,203.4-443.7,311.9-587.1c46.5-62,96.9-127.9,112.4-147.2c23.3-32.9,0-48.4-329.4-209.2c-195.7-95-608.4-279-918.4-408.8c-308.1-129.8-670.4-288.7-802.2-352.6c-222.8-106.6-255.8-129.8-416.6-292.6c-209.3-209.3-341-403-496-720.8c-203.4-418.5-325.5-846.7-372-1300.1c-29.1-306.2-19.4-331.3,155-410.8c548.3-244.2,1567.5-434,2881.2-538.6c530.9-40.7,2038.3-58.1,2625.4-29.1c1389.2,69.7,2449.1,228.6,3185.4,480.5c416.6,141.4,410.8,133.7,393.3,430.1c-27.1,449.5-160.8,994-343,1389.2c-98.8,215.1-186,269.3-296.4,182.1c-79.5-63.9-81.4-118.2-1.9-273.2c139.5-279,267.4-734.3,317.8-1141.2c29.1-238.3,34.9-222.8-110.4-277.1c-585.2-215.1-1526.8-374-2766.9-463.1c-544.5-38.8-2441.4-32.9-2974.2,9.7c-846.7,67.8-1468.7,153.1-1976.3,267.4c-290.6,65.9-734.3,203.4-769.2,236.4c-17.4,17.4-17.4,65.9-3.9,187.9C505.9-2991.2,829.5-2255,1209.3-1912c147.3,133.7,323.6,222.8,999.8,507.6c701.4,296.5,978.5,420.5,1271,575.5l234.4,124l112.4-77.5c286.8-193.8,554.2-277.1,891.3-279c191.8,0,255.8,7.8,366.2,44.6c164.7,56.2,296.5,120.1,445.7,222.8l112.4,75.6l168.6-91.1c379.8-207.3,1304-649.1,1354.4-649.1c116.3,0,189.9,182.1,106.6,255.8c-19.4,15.5-327.4,172.5-684,350.7c-356.5,176.3-660.7,329.4-676.2,341c-23.3,15.5-7.8,44.6,79.4,151.1c209.3,253.8,381.7,567.7,486.3,883.5c36.8,104.6,77.5,182.1,137.6,251.9c189.9,224.8,364.3,548.3,437.9,815.7c106.6,375.9,54.3,800.2-114.3,924.2l-54.3,40.7l-11.6,447.6c-13.6,558-48.4,695.6-224.8,891.3c-38.8,44.6-83.3,120.1-96.9,168.6c-118.2,410.8-509.6,701.4-1119.9,835.1C5187.1,4950.9,4476,4968.3,4241.6,4927.6z M5394.4,4598.2c498-116.3,798.3-344.9,871.9-664.6c25.2-110.4,40.7-143.4,106.6-199.6c77.5-67.8,139.5-172.4,166.6-280.9c7.8-31,19.4-294.5,27.1-585.1c13.5-589,11.6-581.3,151.1-604.5l73.6-11.6l5.8-164.7c7.8-203.4-23.2-391.4-94.9-581.3c-67.8-176.3-217-412.7-346.8-550.3c-85.3-89.1-106.6-129.8-156.9-290.6C5937-170.1,5328.6-759.2,4722.1-761.1c-315.8,0-670.4,143.4-916.5,372c-240.3,226.7-397.2,480.5-511.5,831.2c-48.4,151.1-71.7,193.8-160.8,286.8c-125.9,133.7-199.6,240.3-292.6,426.3c-108.5,211.2-147.3,391.4-147.3,662.7v228.6l77.5,21.3c42.6,11.6,85.2,36.8,96.9,58.1c11.6,21.3,27.1,298.4,36.8,633.6c15.5,523.1,23.3,614.2,60.1,742.1c182.1,627.8,641.3,1015.3,1329.2,1123.8C4474.1,4652.5,5235.5,4633.1,5394.4,4598.2z"></path><path d="M9108.7,422.8c-34.9-9.7-288.7-327.5-885.4-1102.5c-461.2-600.6-842.9-1110.2-848.7-1133.5c-19.4-77.5,36.8-139.5,356.5-385.6c339.1-261.6,397.2-286.8,480.5-213.1c42.6,36.8,1637.2,2113.9,1670.2,2174c50.4,94.9,11.6,141.4-319.7,395.3C9228.9,415,9182.4,440.2,9108.7,422.8z M9351-67.5c89.1-67.8,160.8-129.8,162.8-137.6c0-11.6-1240-1641.1-1387.3-1819.4l-42.6-52.3l-162.8,124c-87.2,67.8-160.8,131.7-160.8,141.4c0,17.5,1408.6,1862,1422.2,1864C9186.2,52.7,9261.8-1.6,9351-67.5z"></path><path d="M7252.6-2036c-50.4-7.8-176.3-141.4-187.9-201.5c-5.8-25.2-38.8-236.4-71.7-468.9l-60.1-426.3l40.7-34.9c50.4-38.8,25.2-48.4,542.5,176.3c377.8,162.7,397.2,174.4,447.6,273.2c44.6,87.2,48.4,137.6,15.5,170.5c-40.7,40.7-98.8,25.2-372-93c-145.3-62-280.9-120.1-300.3-125.9c-32.9-9.7-31,7.8,9.7,294.5c25.2,168.6,46.5,329.4,46.5,358.5C7363-2055.4,7320.4-2024.4,7252.6-2036z"></path></g></g>
</svg>