<?xml version="1.0" standalone="no"?>
<!DOCTYPE svg PUBLIC "-//W3C//DTD SVG 1.0//EN" "http://www.w3.org/TR/2001/REC-SVG-20010904/DTD/svg10.dtd">
<svg xmlns="http://www.w3.org/2000/svg" xmlns:xlink="http://www.w3.org/1999/xlink" id="body_1" width="31" height="23">

<g transform="matrix(0.023 0 0 0.023 3.9999995 -0)">
	<g>
        <path d="M813.3 324.3C 887.6 377 948.6 447.8 990 530.6C 899 712.39996 713.7 836.89996 500 836.89996C 440.1 836.89996 382.5 827.1 328.5 809.1L328.5 809.1L403.1 734.5C 434.7 741.5 467.2 745.1 500 745.1C 585.7 745.1 669.3 720.69995 741.6 674.6C 799.19995 637.89996 848 588.69995 884.6 530.8C 849.1 474.8 802.3 426.9 747.1 390.59998L747.1 390.59998L813.3 324.3zM500 708.6C 478.3 708.6 457.2 705.8 437.1 700.39996L437.1 700.39996L736.80005 400.69995C 742.10004 420.79996 745.00006 441.79996 745.00006 463.59995C 745 598.9 635.3 708.6 500 708.6zM928.8 40.6L877.39996 40.6L667.1 250.8C 614.39996 233.6 558.19995 224.40001 499.99997 224.40001C 286.3 224.40001 100.99997 348.90002 9.9999695 530.7C 50.79997 612.2 110.59997 682.2 183.39996 734.6L183.39996 734.6L10 907.9L10 959.30005L61.4 959.30005L928.8 92.1L928.8 40.6zM408.1 341.1C 454.1 341.1 492.2 374.9 498.90002 419L498.90002 419L394.1 523.8C 350 517.1 316.2 479 316.2 433C 316.3 382.3 357.4 341.1 408.1 341.1zM115.4 530.6C 152 472.69998 200.8 423.49997 258.4 386.8C 262.1 384.4 265.9 382.09998 269.69998 379.8C 260.19998 406 254.99998 434.19998 254.99998 463.59998C 254.99998 519.6 273.8 571.19995 305.4 612.5L305.4 612.5L249.4 668.5C 195.7 632.5 150.1 585.5 115.4 530.6z" stroke="none" fill="#000000" fill-rule="nonzero" />
	</g>
</g>
</svg>