<?xml version="1.0" encoding="utf-8"?>
<!-- Svg Vector Icons : http://www.onlinewebfonts.com/icon -->
<!DOCTYPE svg PUBLIC "-//W3C//DTD SVG 1.1//EN" "http://www.w3.org/Graphics/SVG/1.1/DTD/svg11.dtd">
<svg version="1.1" xmlns="http://www.w3.org/2000/svg" xmlns:xlink="http://www.w3.org/1999/xlink" x="0px" y="0px" viewBox="0 0 1000 1000" enable-background="new 0 0 1000 1000" xml:space="preserve">
<metadata> Svg Vector Icons : http://www.onlinewebfonts.com/icon </metadata>
<g><g transform="translate(0.000000,511.000000) scale(0.100000,-0.100000)"><path d="M4625.1,4993.8C3418.5,4828,2456,3966.8,2156.7,2787.9C1786,1330.3,2605.7-180.2,4037.9-686.8c108.2-39.1,262.5-82.9,340.8-99l140.5-27.6v-766.8v-769.1h-736.8h-736.8v-483.5v-483.5h736.8h736.8v-736.8V-4790h483.5h483.5v736.8v736.8h736.8h736.8v483.5v483.5h-736.8h-736.8v769.1v766.8l92.1,16.1c163.5,25.3,534.2,154.3,725.3,251c835.8,419.1,1429.9,1211.2,1593.4,2123c48.3,271.7,46.1,743.7-2.3,1013.1c-108.2,578-361.5,1079.9-755.2,1496.7c-430.6,455.9-957.9,748.3-1572.7,875C5345.8,5007.6,4843.8,5026,4625.1,4993.8z M5414.9,4006c723-149.7,1303.3-706.9,1503.6-1448.3c66.8-251,66.8-702.3-2.3-957.9C6736.6,934.3,6248.4,413.9,5601.4,202.1c-181.9-57.6-267.1-71.4-508.9-82.9c-571.1-20.7-1017.8,138.2-1418.4,511.2c-1116.8,1038.5-713.8,2862.1,736.8,3329.6C4726.4,4061.2,5069.5,4077.4,5414.9,4006z"/></g></g>
</svg>