<svg version="1.1" xmlns="http://www.w3.org/2000/svg" xmlns:xlink="http://www.w3.org/1999/xlink" x="0px" y="0px" viewBox="0 0 1000 1000" enable-background="new 0 0 1000 1000" xml:space="preserve" height="23" width="23">
<metadata> Svg Vector Icons : http://www.onlinewebfonts.com/icon </metadata>
<g><path d="M205.8,185.2c0,11.3-9.2,20.5-20.5,20.5H30.5c-11.3,0-20.5-9.2-20.5-20.5V30.5C10,19.2,19.2,10,30.5,10h154.7c11.3,0,20.5,9.2,20.5,20.5V185.2z"></path><path d="M597.9,185.2c0,11.3-9.2,20.5-20.5,20.5H422.6c-11.3,0-20.5-9.2-20.5-20.5V30.5c0-11.3,9.2-20.5,20.5-20.5h154.7c11.3,0,20.5,9.2,20.5,20.5V185.2z"></path><path d="M990,185.2c0,11.3-9.2,20.5-20.5,20.5H814.8c-11.3,0-20.5-9.2-20.5-20.5V30.5c0-11.3,9.2-20.5,20.5-20.5h154.7c11.3,0,20.5,9.2,20.5,20.5V185.2z"></path><path d="M205.8,577.4c0,11.3-9.2,20.5-20.5,20.5H30.5c-11.3,0-20.5-9.2-20.5-20.5V422.6c0-11.3,9.2-20.5,20.5-20.5h154.7c11.3,0,20.5,9.2,20.5,20.5V577.4z"></path><path d="M597.9,577.4c0,11.3-9.2,20.5-20.5,20.5H422.6c-11.3,0-20.5-9.2-20.5-20.5V422.6c0-11.3,9.2-20.5,20.5-20.5h154.7c11.3,0,20.5,9.2,20.5,20.5V577.4z"></path><path d="M990,577.4c0,11.3-9.2,20.5-20.5,20.5H814.8c-11.3,0-20.5-9.2-20.5-20.5V422.6c0-11.3,9.2-20.5,20.5-20.5h154.7c11.3,0,20.5,9.2,20.5,20.5V577.4z"></path><path d="M205.8,969.5c0,11.3-9.2,20.5-20.5,20.5H30.5c-11.3,0-20.5-9.2-20.5-20.5V814.8c0-11.3,9.2-20.5,20.5-20.5h154.7c11.3,0,20.5,9.2,20.5,20.5V969.5z"></path><path d="M597.9,969.5c0,11.3-9.2,20.5-20.5,20.5H422.6c-11.3,0-20.5-9.2-20.5-20.5V814.8c0-11.3,9.2-20.5,20.5-20.5h154.7c11.3,0,20.5,9.2,20.5,20.5V969.5z"></path><path d="M990,969.5c0,11.3-9.2,20.5-20.5,20.5H814.8c-11.3,0-20.5-9.2-20.5-20.5V814.8c0-11.3,9.2-20.5,20.5-20.5h154.7c11.3,0,20.5,9.2,20.5,20.5V969.5z"></path></g>
</svg>