<svg version="1.1" xmlns="http://www.w3.org/2000/svg" xmlns:xlink="http://www.w3.org/1999/xlink" x="0px" y="0px" viewBox="0 0 1000 1000" enable-background="new 0 0 1000 1000" xml:space="preserve" height="23" width="23">
<metadata> Svg Vector Icons : http://www.onlinewebfonts.com/icon </metadata>
<g><path d="M499.2,989.6c-204,0-391.6-130.5-460.9-322.2c-69.3-191.7-8.2-416.1,150.9-546.6C348.3-9.7,576.7-26.1,752.1,80C927.5,186,1021.3,394.1,980.5,594C935.7,822.4,731.7,989.6,499.2,989.6z M903,557.2c0-8.2,4.1-16.3,4.1-24.5c-4.1,0-8.2-4.1-8.2-4.1c-4.1,0-12.2,16.3-8.2,20.4c4.1,0,4.1,0,4.1,4.1C890.8,549.1,903,557.2,903,557.2C903,549.1,903,557.2,903,557.2z M103.5,598c0,0,4.1-12.2,4.1-8.2l8.2-4.1v-4.1l0,0l-8.2-4.1c0,0,0,4.1-4.1,4.1c0,0,0,0,4.1,4.1c-4.1,0-4.1,0-4.1,0s0-4.1-4.1-4.1C99.5,594,99.5,598,103.5,598C107.6,594,103.5,598,103.5,598z M119.9,434.9L119.9,434.9C123.9,434.9,123.9,434.9,119.9,434.9C123.9,434.9,123.9,434.9,119.9,434.9C119.9,434.9,123.9,434.9,119.9,434.9z M230,206.4C225.9,206.4,225.9,206.4,230,206.4C225.9,202.4,225.9,202.4,230,206.4c0-4.1-4.1-4.1-4.1-4.1l0,0h4.1h-4.1l-4.1,4.1C217.8,206.4,230,210.5,230,206.4L230,206.4z M209.6,214.6L209.6,214.6L209.6,214.6L209.6,214.6L209.6,214.6z M686.8,165.7c4.1,0,12.2-4.1,8.2-4.1c0,0,4.1,0,4.1-4.1l0,0c4.1-4.1,8.2-4.1,12.2-8.2C593,80,450.3,75.9,327.9,133l0,0h-4.1c4.1,0-4.1,4.1-4.1,4.1c4.1,0,12.2,4.1,12.2,4.1h-8.2l0,0l0,0c0,0,4.1,0,8.2,0s-8.2,4.1-4.1,4.1c8.2,0,0,0,8.2,0c0,0,0,0,0,4.1c0,0,8.2-4.1,8.2,0c0,0-8.2,8.2-8.2,4.1l0,0l0,0l0,0c0,0,0,0,4.1,0l0,0c0-4.1,8.2,0,8.2,4.1c0,0-12.2,8.2-12.2,4.1c4.1,0,4.1,0,4.1,0s-8.2,0-8.2,4.1l0,0c0,0,0,0-4.1,0c0,0,0,0,4.1,0c-4.1,4.1-4.1,4.1-8.2,4.1l0,0l0,0c0,4.1,0,0,8.2,0l-4.1,4.1l0,0c4.1,0,12.2-4.1,8.2,0l0,0c4.1-4.1,12.2,0,16.3,0c0,4.1,4.1,4.1,4.1,4.1l4.1,4.1c0,4.1-4.1,0-4.1,0c0,4.1-20.4-4.1-32.6,0h8.2l0,0c0,0,12.2-4.1,12.2,0S336,186,336,186c4.1,4.1-4.1,4.1,0,4.1l12.2-4.1l-8.2,4.1c8.2,0,16.3-8.2,24.5-12.2l0,0c0,0,0,0-4.1,0c4.1,0,0,0,0,0l0,0c0,0-4.1,0-4.1,4.1l0,0c0,0,0,0-4.1,0l0,0c0,0,0,0-4.1,0l0,0c0,0-4.1,0,0,4.1c0,0-4.1,4.1,0,0l0,0c0,0-12.2,12.2-12.2,8.2H332l0,0c-4.1,4.1-8.2-4.1-12.2,0c4.1,4.1,0,12.2,0,12.2l0,0c4.1,0-8.2,12.2-8.2,8.2l0,0c0,4.1-4.1,4.1-4.1,4.1l0,0l0,0c0,4.1,0,4.1-4.1,0c-4.1,0,0,0,0,4.1l0,0v-4.1h-4.1c0,4.1,0,0,0,0v4.1c0,0-4.1,0-8.2,0l0,0c-4.1,0-4.1,0,0,0c4.1,4.1-8.2,4.1-8.2,4.1s4.1,0,4.1,4.1l0,0c0,0-4.1,0-8.2,4.1c0,0,8.2,0,8.2,4.1H283h4.1c0,4.1-4.1,0-4.1,4.1c0,0-4.1,0,0,0h-4.1v4.1c-8.2,4.1,4.1,4.1-4.1,4.1c4.1,0,4.1,0,8.2,4.1c0,0-4.1,4.1,0,0l-4.1,4.1c0,0,8.2,0,0,4.1l0,0c0,0,0,0-4.1,0c0,4.1,4.1,0,4.1,0s-4.1,4.1-8.2,4.1h4.1c0,4.1-8.2,4.1-12.2,4.1c0,0,4.1-4.1,0-4.1l0,0l0,0c0,0,0,0-4.1,4.1c0,0,0,0,0-4.1h-4.1c0-4.1,4.1,0,4.1-4.1h-4.1c0,0,0,0,0-4.1l0,0c-4.1,0-8.2,8.2-12.2,4.1c4.1,0,0,0,0,0l0,0h-4.1h4.1c-4.1,0-4.1,4.1-4.1,0l0,0l0,0c0,0,4.1,0,0-4.1c0,0,0,0-4.1,0c0,0,0,0,4.1,0c0,0-4.1,0,0,0c0-8.2-4.1,4.1-4.1-8.2c0,0-4.1,0-4.1,4.1c-4.1-4.1,8.2,0,0,0c0-4.1-4.1-4.1,0-4.1c-4.1,0-8.2,0-4.1,0l0,0c4.1,0,4.1,0,8.2-4.1c-4.1-4.1-8.2,4.1-8.2,0c4.1-8.2,4.1,0,12.2-4.1c0,0-8.2-4.1-8.2-8.2c0,0,0,8.2-8.2,8.2c4.1,0,0-8.2,0-8.2c4.1,0,0,0,0,0c4.1-4.1,0,0-4.1-4.1c0,0,0,0,4.1,0h-4.1c4.1-4.1,16.3-4.1,16.3-8.2c-4.1,0-20.4,8.2-20.4,8.2l0,0c-4.1,0,4.1-4.1,4.1-4.1c-8.2,0,0,0,0,0s-8.2,0-8.2-4.1c4.1,0,8.2,0,12.2,0c-4.1-4.1-8.2,0-12.2,0c4.1-4.1,8.2-4.1,16.3-4.1l0,0c0,0,4.1-4.1,0,0c0,0-4.1,4.1-4.1,0l0,0l-8.2,4.1c-4.1-4.1,8.2-4.1,8.2-4.1c-4.1,0,4.1,0,8.2,0h-4.1l0,0l0,0h-8.2l12.2-4.1c0,0,0,0-4.1,0c4.1-4.1,8.2-4.1,0-4.1c0,0,0,0,0-4.1c0,0,0,0,0-4.1c0,0,0,0,0-4.1c-4.1,0-12.2-4.1-16.3,0l8.2,4.1c0,4.1-16.3,4.1-8.2,0c-8.2-8.2-32.6,28.6-36.7,36.7c4.1,0,4.1,0,4.1,4.1c0,0-4.1,0-4.1,4.1c4.1,0,4.1,0,8.2,0l0,0c4.1,0,8.2,0,8.2,4.1s-4.1,0-8.2,4.1c0,0,0,4.1,4.1,4.1s-8.2,0-8.2,0c0,4.1,0,4.1,0,8.2c-4.1,0-4.1,0-4.1-4.1l0,0v-4.1c-4.1,0-8.2,0-8.2-4.1c0,0,0,8.2-4.1,4.1c0,4.1,4.1,4.1,4.1,8.2c4.1,0,4.1,0,8.2,4.1c-4.1,0,4.1,4.1,4.1,8.2l-4.1-4.1c0,4.1,4.1,4.1,4.1,8.2l0,0v4.1c-4.1,0-8.2-8.2-12.2-8.2c0,0,0,0,0,4.1h-4.1c0,4.1,12.2,8.2,12.2,12.2c-8.2-4.1-16.3-4.1-20.4-8.2c-12.2,20.4,16.3,8.2,8.2,28.6l0,0c0,8.2,4.1,0,8.2,4.1c0,4.1,4.1,0,8.2-4.1c4.1,0,4.1-4.1,8.2-8.2c4.1,4.1,8.2,8.2,8.2,12.2l4.1,4.1l0,0c4.1,8.2,4.1,0,0,4.1c4.1,4.1,12.2,4.1,8.2,12.2c4.1,0,8.2,0,16.3,4.1c-4.1,4.1-12.2,0-12.2,8.2c4.1,0,12.2-8.2,16.3-4.1c-4.1,8.2,16.3,8.2-8.2,16.3c-20.4,8.2-44.9,0-57.1,24.5c4.1-4.1,28.6-24.5,32.6-12.2c0,4.1-8.2,4.1-12.2,4.1c0,4.1,4.1,0,8.2,0l0,0l0,0c0,0,0,4.1-4.1,4.1h4.1c0,4.1,4.1,4.1,4.1,4.1c-4.1,0,4.1,4.1,4.1,4.1s8.2,0,4.1,0c0,0,0,0,4.1,0l0,0l0,0l0,0c0,4.1-8.2,0-8.2,4.1l0,0c0,0,0,0-4.1,0l0,0c0,0,0,4.1-4.1,4.1c0,4.1-4.1,0-4.1,0l0,0c0-4.1,0-4.1,0-4.1c-4.1,0,0,0,0,0s4.1-4.1,8.2-4.1l0,0c0,0,0-4.1,4.1,0c0-4.1-4.1-4.1-8.2,0c0,0,0-4.1,4.1-4.1l0,0l0,0c0,4.1-4.1,4.1-8.2,4.1l0,0H181l0,0l0,0H177c0,0,0,0-4.1,0l0,0l0,0l0,0l0,0l-4.1,4.1l0,0l0,0l0,0c0,0,0,4.1,0,0l-4.1,4.1c4.1,4.1,0-4.1,0,4.1l4.1,4.1h-4.1c0-4.1-4.1,4.1-4.1,0c-4.1,0-8.2,4.1-12.2,4.1c0-4.1,0,0,0,0c0,4.1,4.1-4.1,0,4.1c0,0-4.1,0-4.1,4.1c0,0-4.1-8.2-4.1-4.1l0,0c0,0,4.1,12.2-4.1,16.3v-4.1c0,0,0,0,0-4.1c0,0-4.1,0,0,0c0,0-4.1,0,0,0l0,0l0,0l0,0l0,0l0,0l0,0l0,0l0,0l0,0v4.1l0,0c0,0,0,0,0,4.1c0,0,0,0-4.1,0l0,0l0,0l4.1,4.1l0,0l0,0c0,0,0,0,4.1,4.1l0,0l0,0l0,0l0,0c0,0,0,0,0,4.1c0,0,0,0-4.1,0l4.1,4.1l0,0l0,0c0,0,0,0,0,4.1c0,0-4.1,0,0,0l0,0l0,0c-4.1,0,0-4.1,0,0c4.1,0,4.1,0,4.1,0l0,0c4.1,0-4.1,4.1-4.1,4.1l0,0c0,0,0,0-4.1,0c0,0,4.1,4.1,0,4.1c0,4.1-4.1,4.1-12.2,12.2c-8.2,8.2-8.2,8.2-8.2,20.4c0,0,8.2,20.4,0,20.4l0,0c-4.1,0-8.2-8.2-8.2-12.2l0,0c0-8.2,0-4.1-4.1-12.2c0,12.2,0,24.5,0,36.7c8.2-4.1,28.6,4.1,36.7,8.2c0,4.1,4.1,0,8.2,4.1h-16.3l4.1-4.1c-8.2-4.1-16.3-4.1-24.5-8.2c8.2,0-8.2,0-8.2,0c0,12.2,0,53,8.2,61.2c0,4.1,8.2-4.1,8.2,0c0,0,20.4,12.2,12.2,8.2l0,0c0,0,4.1-4.1,8.2-4.1c4.1,4.1-4.1,4.1-4.1,4.1c0,4.1-4.1,8.2,0,12.2c4.1,0,0-4.1,0-8.2l0,0l8.2-4.1c0,0,0,0-4.1,0l0,0c4.1,12.2,36.7,8.2,32.6,8.2c0,4.1,8.2,4.1,8.2,4.1l-4.1,4.1c4.1,0,16.3,4.1,16.3,8.2c8.2,0,24.5,12.2,32.6,12.2c12.2,4.1,4.1,20.4-4.1,24.5h4.1c0,4.1,4.1,4.1,8.2,4.1c0,0,0,0,0,4.1c8.2-4.1,4.1-8.2,12.2-8.2c4.1,0,8.2,4.1,8.2,4.1c4.1,0,0,4.1,4.1,8.2c12.2-8.2,40.8,4.1,44.9,16.3c4.1,8.2-12.2,28.6-16.3,28.6c0,12.2,0,24.5-4.1,32.6c-8.2,16.3-4.1,8.2-20.4,16.3c-4.1,4.1-16.3,8.2-20.4,12.2c-4.1,8.2-4.1,24.5-12.2,32.6c0-4.1,4.1-4.1,4.1-8.2c0,0,0,0-4.1,0c0,4.1,0,4.1-4.1,8.2c130.5,126.5,334.5,150.9,489.5,61.2c69.3-40.8,126.5-102,163.2-175.4c12.2-28.6,36.7-73.4,32.6-106.1c0-4.1-8.2-24.5-12.2-20.4c0-4.1,0-12.2,4.1-16.3c-4.1,0-4.1-24.5-8.2-28.6l-8.2,8.2l0,0c0,0-4.1,0,0,0c-8.2,0,0-8.2-4.1-12.2l0,0l0,0c4.1,0-12.2-16.3-12.2-16.3s0,8.2-4.1,4.1c0,0,0,4.1,0,0l0,0l0,0l0,0h-4.1c-4.1,4.1,0,0-4.1,0c-8.2,8.2-16.3,12.2-24.5,24.5c-12.2,12.2-8.2,16.3-12.2,32.6c-4.1,0-4.1,4.1-4.1,4.1c-4.1,0-4.1,4.1-8.2,4.1c-12.2-12.2-24.5-48.9-20.4-65.3c-4.1,0-8.2,16.3-16.3,0c0,0,8.2,0,8.2-4.1c-8.2,4.1-20.4-12.2-24.5-12.2c-12.2-4.1-24.5,0-32.6-4.1c-4.1,0-40.8-24.5-40.8-20.4l0,0l0,0c0,0,8.2,8.2,12.2,12.2c0,4.1,0,8.2,4.1,12.2v-8.2c4.1,0,0,8.2,8.2,8.2s8.2-12.2,16.3-12.2v4.1c-4.1,0,12.2,12.2,12.2,12.2c0,4.1-4.1,8.2-8.2,16.3c-8.2,12.2-28.6,20.4-40.8,24.5c-24.5,12.2-20.4,0-32.6-16.3c-4.1-8.2-24.5-48.9-32.6-48.9c0-4.1-4.1-16.3-4.1-16.3c0-4.1,8.2-12.2,8.2-16.3c0-4.1,0-12.2,0-12.2c-4.1,0-16.3,0-24.5,0c0,4.1-4.1,4.1-8.2,0h-8.2c4.1,0-4.1-4.1-4.1-8.2l0,0c0,0,0,0,0-4.1l0,0l0,0l0,0l0,0h-4.1c0-4.1,4.1-4.1,8.2-4.1l0,0l0,0c4.1,0,4.1,0,4.1,0l0,0c0-4.1,4.1,0,4.1,0s-4.1,0-4.1-4.1c0,0,8.2,0,12.2,0c0-12.2,32.6,4.1,36.7,0c20.4-8.2-8.2-16.3-12.2-24.5c4.1,0,4.1-4.1,8.2-4.1c0,0,0,0-4.1-4.1c0,0,4.1-4.1,8.2-4.1c0-4.1-20.4,4.1-24.5,4.1c4.1,4.1,8.2,4.1,12.2,4.1l-12.2,4.1c0-8.2,0,0-4.1-4.1c0,0,4.1,0,4.1-4.1l-8.2-4.1c0,0-12.2,4.1-12.2,8.2c4.1,4.1-8.2,8.2-8.2,12.2c0,8.2,0,4.1,4.1,12.2c0,0-12.2,4.1-12.2,8.2v-4.1c0-4.1-12.2,0-12.2,0c8.2,8.2,0,0,0,4.1c0,4.1,0,0,0,0l0,0c-4.1,0-4.1,0-4.1-4.1l0,0c4.1,4.1,4.1,4.1,0,8.2l0,0c-4.1,4.1,4.1,0,4.1,4.1l0,0c0,4.1,0,0-4.1,0c0,0,4.1,4.1,0,4.1l0,0v4.1h-4.1c0,0,0,0,0-4.1l-4.1-4.1c0-4.1,8.2,0,8.2,0s-16.3-8.2-16.3-12.2l0,0c0-4.1,0-4.1,0-8.2l-20.4-12.2l0,0c-4.1,0,0-4.1-4.1-4.1c0,0,0,4.1-4.1,4.1v-4.1l0,0c0,0-8.2,0-8.2,4.1c4.1,0,12.2,24.5,16.3,20.4c4.1,4.1,12.2,4.1,12.2,8.2c-4.1,0-8.2-8.2-8.2,0c4.1,4.1,0,8.2-4.1,8.2v-4.1c0,0,0-8.2-4.1-8.2c-4.1,0,0-4.1-4.1-4.1l0,0c0-4.1-12.2-8.2-16.3-8.2c-12.2-8.2-4.1-8.2-16.3-4.1c-12.2,0-24.5,4.1-28.6,16.3c0,8.2-8.2,16.3-12.2,20.4c-4.1-4.1-12.2,0-16.3,4.1c-4.1,0-8.2-8.2-16.3-4.1c0-4.1,0-8.2,0-8.2l0,0c-4.1,0,0-24.5,0-24.5c8.2-8.2,24.5,0,32.6,0c0-4.1,0-4.1,4.1-8.2l0,0l0,0c0-8.2,0-4.1,4.1-4.1c0-4.1-8.2-12.2-8.2-12.2c-4.1,0-8.2,0-12.2-4.1c4.1,0,0,0,0,0l0,0c0,0,0,0-4.1,0c0-4.1,12.2,0,12.2-4.1l0,0c4.1,0,0-4.1,0-8.2c4.1,0,4.1,0,4.1,4.1c4.1,0,4.1,0,8.2,0c-4.1,0,16.3-12.2,16.3-12.2l0,0c4.1,0,4.1-4.1,4.1-8.2c4.1,0,0,0,0,4.1h4.1l0,0l0,0l0,0c0-4.1,4.1-4.1,8.2-4.1c0-4.1,4.1,0,4.1-4.1l0,0c0,0,0,0,0-4.1c0,0,0,0,4.1,0l0,0l0,0l0,0l0,0l0,0c0,0,0-4.1-4.1-8.2l0,0c0,0,0-4.1,0-8.2h4.1l0,0c0,0,0,0,0-4.1c8.2,0,0,4.1,8.2,4.1l-4.1,4.1c0,4.1,4.1,12.2,4.1,12.2s16.3,0,16.3,4.1c0-8.2,28.6-8.2,28.6-8.2l0,0c-4.1-4.1,0-16.3,8.2-16.3c0,4.1,4.1,4.1,8.2,4.1c4.1-4.1-4.1-8.2-4.1-8.2l0,0c0-8.2,4.1-4.1,4.1-4.1c4.1,0,12.2,0,16.3,0c0-4.1,0,0,0-4.1l0,0h8.2l-8.2-4.1c0,0-8.2,4.1-8.2,0c0,4.1-4.1,4.1-8.2,4.1l0,0h-4.1l0,0c-4.1,0-4.1,0-4.1,0s0,0-4.1,0c0,0-4.1-16.3-8.2-16.3c4.1,0,4.1-4.1,4.1-4.1c4.1,0,0,0,4.1-4.1c0,4.1,12.2-8.2,12.2-8.2c0-8.2-16.3-8.2-20.4-4.1v4.1c4.1,4.1-8.2,12.2-12.2,12.2c0,4.1,0,4.1-4.1,4.1c0,4.1-4.1,8.2,0,12.2c0,4.1,8.2,0,8.2,8.2c0,0-12.2,4.1-12.2,0c0,0,8.2,4.1,8.2,0l0,0l0,0c0,0-4.1,4.1-4.1,0c-4.1,0,0,4.1-4.1,4.1c0,0,4.1,4.1,0,4.1l0,0c0,4.1,0,8.2-4.1,12.2c0,0-4.1-4.1-4.1,0l-8.2,4.1c0-4.1,0-4.1,0-4.1l0,0c0,0-4.1-8.2-4.1-12.2l0,0l-4.1-8.2c-4.1,4.1-8.2,12.2-16.3,8.2l0,0l0,0l0,0c-4.1,0-4.1-4.1-4.1-4.1l0,0l0,0v-4.1l0,0c-4.1,4.1,0,0,0,0s0,4.1,0,0l0,0v-4.1l0,0l0,0l0,0c0,0,0,0-4.1,0c0,0,0,0,0-4.1h-4.1l0,0c0,0-4.1-8.2,0-8.2c0-4.1,4.1,0,8.2-4.1h-4.1c4.1-4.1,16.3-8.2,20.4-12.2c0-4.1,0-4.1,4.1-4.1v-4.1c0-4.1,4.1-8.2,8.2-8.2c0-8.2-4.1,12.2,4.1-4.1l0,0c4.1,0,8.2-4.1,8.2-8.2c4.1,0,4.1,0,0,0c4.1-4.1,8.2-8.2,16.3-8.2v4.1c8.2-4.1,16.3-12.2,24.5-12.2c0,0-4.1,4.1-4.1,8.2c4.1,0,4.1,0,8.2-8.2v4.1c0-4.1,4.1-4.1,8.2-4.1v4.1c4.1,0,4.1,0,4.1-4.1l8.2,4.1c0,0-4.1,0-8.2,0c4.1,8.2,20.4,0,20.4,8.2c8.2-4.1,32.6,8.2,36.7,12.2c4.1,20.4-36.7,0-40.8,4.1c4.1,4.1,8.2,16.3,12.2,16.3c0,0,20.4,8.2,12.2,0c-4.1,0-4.1,0-4.1-4.1c4.1-4.1,12.2,0,16.3,4.1c8.2-8.2-8.2,0,4.1-12.2c8.2-4.1,8.2,0,12.2,0c0-4.1,0-4.1,0-8.2c4.1-8.2,0-4.1,0-8.2c4.1,0,12.2,0,12.2,4.1c-4.1,0-8.2,0-8.2,4.1c12.2,8.2,20.4-4.1,32.6-8.2c0,4.1,4.1-4.1,8.2-4.1c0,4.1-4.1,4.1-4.1,4.1c4.1,0,4.1,0,8.2,0c4.1,0,16.3-8.2,20.4-4.1l0,0c0,0,0,4.1,4.1,0c0-4.1,4.1,0,4.1-4.1c-12.2-12.2,36.7,8.2,36.7,0c0,0-8.2-8.2-12.2-8.2c4.1-4.1,4.1-4.1,4.1-8.2c0,0,0,0-4.1,0c0-4.1,8.2-8.2,8.2-12.2S711.3,182,711.3,182l0,0c-4.1,4.1-8.2,4.1-16.3,8.2c4.1,4.1-4.1,4.1-8.2,4.1 M327.9,153.4L327.9,153.4L327.9,153.4z M560.4,385.9L560.4,385.9C556.3,385.9,560.4,385.9,560.4,385.9L560.4,385.9z M438,328.8h4.1c0,4.1-12.2,4.1-16.3,4.1l0,0c-4.1,0-12.2,4.1-16.3,4.1c4.1-4.1,12.2-8.2,12.2-8.2c-4.1,0-8.2,0-12.2,0c4.1-4.1,4.1,0,4.1-4.1c0,0,0,0-4.1,0c0-4.1,8.2,0,8.2-8.2c-4.1,0-4.1,0,0-4.1c-4.1,0-4.1,0-8.2,0c0-4.1,4.1-12.2-4.1-8.2c0-4.1,4.1-4.1,0-4.1c0,0,0,0-4.1,0c0-4.1,0-4.1,4.1-4.1l0,0c0,0,0,0,4.1,0c0,0,0,0,0-4.1l0,0c0-4.1,4.1-4.1,8.2-4.1c0,4.1-8.2,4.1-4.1,8.2c20.4,0,0,4.1,8.2,8.2h-4.1C421.7,304.3,454.3,324.7,438,328.8C438,328.8,442.1,328.8,438,328.8z M413.5,304.3C413.5,308.4,409.5,304.3,413.5,304.3C413.5,304.3,409.5,304.3,413.5,304.3z M409.5,312.5c-4.1,8.2-4.1,16.3-20.4,16.3c0,0,0,0,0-4.1l0,0c0-4.1,0,0,0,0s0,0-4.1,0c0,0,4.1,0,8.2-4.1c0,0,0,0-4.1,0l4.1-4.1h-4.1l0,0l0,0c0,0,0,0-4.1,0c0-4.1,4.1-4.1,8.2,0v-4.1c0,0,0,0-4.1,0C401.3,304.3,409.5,304.3,409.5,312.5C409.5,312.5,409.5,308.4,409.5,312.5z M393.2,438.9c8.2-24.5,32.6-20.4,53-24.5c12.2-4.1,36.7,0,44.9-4.1c0,8.2,0,8.2-4.1,16.3c0,4.1,4.1,4.1,4.1,4.1s20.4,12.2,24.5,12.2c20.4,4.1,16.3-4.1,32.6-4.1c8.2,0,16.3,8.2,28.6,8.2c8.2,0,32.6-8.2,24.5,16.3c-4.1,0-8.2-4.1-8.2-12.2c-4.1,0,12.2,24.5,12.2,28.6c0,0,16.3,36.7,20.4,40.8l0,0c4.1,0,16.3,12.2,16.3,16.3c-12.2,16.3,32.6,0,36.7,0c12.2,12.2-40.8,57.1-44.9,61.2c-12.2,16.3-12.2,20.4-8.2,40.8c0,4.1,4.1,16.3,0,24.5c-8.2,16.3-32.6,12.2-24.5,32.6l0,0c0,4.1,0,4.1,0,8.2s-12.2,4.1-12.2,8.2c12.2,12.2-24.5,36.7-32.6,40.8c-4.1,0-32.6,0-32.6,0s-4.1-8.2,0-8.2c4.1-8.2-12.2-28.6-16.3-40.8c-8.2-16.3-16.3-32.6-12.2-53c0-12.2,8.2-16.3,4.1-24.5c0-4.1-16.3-28.6-16.3-28.6l-4.1-4.1c0-4.1-4.1-8.2,0-8.2v-4.1l0,0c0,0,4.1-12.2,0-12.2l-8.2-4.1l0,0c-4.1,0-12.2,0-12.2-4.1c4.1-12.2-36.7,0-36.7,0c-12.2,4.1-40.8,4.1-48.9-16.3c4.1,0-8.2-12.2-8.2-12.2s0,0,0-4.1c0,0-16.3-4.1-8.2-8.2c0-4.1,4.1-32.6,0-36.7l0,0C356.4,471.6,385,451.2,393.2,438.9C393.2,438.9,389.1,443,393.2,438.9z M478.8,573.6C470.7,573.6,478.8,569.5,478.8,573.6C474.7,573.6,478.8,573.6,478.8,573.6z M637.9,687.8c12.2-4.1-4.1-20.4,12.2-24.5c0-4.1,4.1,0,4.1-4.1s0,0,0,0s0-4.1,0-8.2l0,0c8.2-16.3,12.2,8.2,8.2,8.2c0,0,0,0,0-4.1c-8.2,8.2,0,44.9-16.3,48.9C642,708.2,629.7,691.8,637.9,687.8L637.9,687.8z M593,422.6c-4.1,0-8.2,4.1-8.2,0c4.1,0,4.1,0,4.1,0C588.9,418.6,593,418.6,593,422.6C593,418.6,593,418.6,593,422.6C593,418.6,593,422.6,593,422.6C588.9,422.6,593,422.6,593,422.6z M552.2,422.6c0-4.1,0-4.1-4.1,0C544.1,418.6,548.2,418.6,552.2,422.6c0-4.1,4.1,0,8.2,0C556.3,422.6,556.3,422.6,552.2,422.6L552.2,422.6z M507.4,410.4c-4.1,0-12.2,0-12.2-4.1c0-4.1,12.2-4.1,12.2-4.1C507.4,406.3,507.4,410.4,507.4,410.4L507.4,410.4z M482.9,398.2c0,4.1-4.1,0-4.1,4.1C470.7,398.2,478.8,377.8,482.9,398.2z M478.8,385.9L478.8,385.9L478.8,385.9L478.8,385.9C478.8,381.8,478.8,385.9,478.8,385.9c0-4.1,0-4.1-4.1-4.1l0,0l4.1-4.1C478.8,381.8,478.8,385.9,478.8,385.9L478.8,385.9L478.8,385.9z M340.1,165.7c0,4.1-12.2,0-12.2,0C327.9,161.6,344.2,161.6,340.1,165.7C336,165.7,340.1,165.7,340.1,165.7L340.1,165.7z M332,161.6c0,0-4.1,4.1-8.2,0C323.8,161.6,336,161.6,332,161.6C336,161.6,332,161.6,332,161.6L332,161.6z M323.8,161.6h4.1H323.8L323.8,161.6L323.8,161.6z M332,141.2C327.9,141.2,327.9,141.2,332,141.2C327.9,137.1,332,137.1,332,141.2C336,137.1,332,141.2,332,141.2L332,141.2z M327.9,145.3L327.9,145.3C327.9,141.2,327.9,145.3,327.9,145.3L327.9,145.3z M327.9,141.2L327.9,141.2L327.9,141.2z M332,149.3C327.9,149.3,327.9,149.3,332,149.3C327.9,149.3,332,145.3,332,149.3L332,149.3z M336,182l-8.2,4.1C323.8,182,336,177.9,336,182L336,182L336,182z M258.5,288C258.5,288,258.5,283.9,258.5,288L258.5,288z M230,390L230,390c-4.1,0,0-4.1-4.1-4.1c0,4.1-4.1,4.1-8.2,4.1c0-4.1,0-4.1,4.1-4.1c0-4.1-4.1,4.1-4.1,0c-4.1,0-12.2,0-16.3,0c0-4.1,0-4.1,4.1-4.1c0,0,0,0-4.1,0c0,0,4.1,0,4.1-4.1c-4.1-4.1,4.1-16.3,12.2-12.2c0,0-4.1,8.2-4.1,12.2c0-4.1,4.1-4.1,4.1,0c-4.1,4.1,8.2,4.1,8.2,4.1s0,0-4.1,4.1c4.1,4.1,4.1,0,4.1,0c0,4.1-8.2,0-4.1,4.1C234.1,381.8,234.1,385.9,230,390C234.1,390,230,390,230,390L230,390z M230,647c0,0-4.1,4.1-8.2,0c0,0,0-4.1,0-8.2c4.1,0,8.2,0,8.2,0C230,642.9,230,647,230,647z M225.9,210.5C225.9,210.5,225.9,214.6,225.9,210.5C225.9,214.6,225.9,214.6,225.9,210.5C221.8,210.5,225.9,210.5,225.9,210.5L225.9,210.5z M193.3,394.1c0-4.1,4.1-4.1,4.1-8.2C201.4,390,197.4,390,193.3,394.1c4.1,0,4.1-4.1,8.2,0C201.4,398.2,197.4,398.2,193.3,394.1C193.3,394.1,197.4,398.2,193.3,394.1z M168.8,536.8C168.8,536.8,168.8,540.9,168.8,536.8C168.8,536.8,168.8,532.8,168.8,536.8C172.9,540.9,172.9,536.8,168.8,536.8z M168.8,594L168.8,594C172.9,589.9,177,594,168.8,594L168.8,594L168.8,594z M156.6,536.8c-4.1,0-4.1,0-4.1,0l-4.1,4.1l-12.2-4.1c0-4.1,8.2,0,8.2,0l-4.1-4.1c4.1-4.1,20.4,4.1,24.5,4.1C160.6,540.9,160.6,532.8,156.6,536.8L156.6,536.8z M128,447.1C128,447.1,128,451.2,128,447.1C128,451.2,128,447.1,128,447.1L128,447.1z M128,447.1L128,447.1L128,447.1z M128,447.1L128,447.1L128,447.1z M123.9,536.8c-4.1,0-4.1,0-8.2,0H123.9C123.9,540.9,123.9,536.8,123.9,536.8z M805.1,545L805.1,545c4.1,0,12.2,16.3,0,12.2C801.1,557.2,801.1,549.1,805.1,545L805.1,545z M478.8,292.1l4.1-4.1C482.9,296.2,478.8,292.1,478.8,292.1C474.7,292.1,478.8,292.1,478.8,292.1C482.9,292.1,478.8,292.1,478.8,292.1z M491,300.3C491,304.3,491,304.3,491,300.3L491,300.3C495.1,304.3,491,304.3,491,300.3c4.1,4.1,4.1,4.1,0,4.1c0,0,0-4.1-4.1,0C487,304.3,487,304.3,491,300.3L491,300.3C491,304.3,491,300.3,491,300.3z M152.5,418.6C156.6,418.6,156.6,418.6,152.5,418.6C156.6,418.6,152.5,418.6,152.5,418.6z M156.6,418.6L156.6,418.6L156.6,418.6z M128,447.1L128,447.1L128,447.1z M128,447.1L128,447.1L128,447.1z M128,447.1L128,447.1L128,447.1z M128,447.1L128,447.1L128,447.1z"></path></g>
</svg>