<?xml version="1.0" encoding="utf-8"?>
<!-- Svg Vector Icons : http://www.onlinewebfonts.com/icon -->
<!DOCTYPE svg PUBLIC "-//W3C//DTD SVG 1.1//EN" "http://www.w3.org/Graphics/SVG/1.1/DTD/svg11.dtd">
<svg version="1.1" xmlns="http://www.w3.org/2000/svg" xmlns:xlink="http://www.w3.org/1999/xlink" x="0px" y="0px" viewBox="0 0 1000 1000" enable-background="new 0 0 1000 1000" xml:space="preserve">
<metadata> Svg Vector Icons : http://www.onlinewebfonts.com/icon </metadata>
<g><path d="M622.9,386.6l61.2-164.2l80.2,175.6l98-44.8l-112-245.1l0,0l-44.8-98l0,0l0,0l-98,44.8l0,0l-245.1,112l44.8,98l175.9-80.4l-61.3,164.5C369.7,319.5,214,403.4,158,553.6c-62.4,167.3,22.7,353.6,190,416c167.3,62.4,353.6-22.7,416-190C820,629.4,757.3,464,622.9,386.6z M385.7,868.5C274.1,826.9,217.4,702.8,259,591.2c41.6-111.6,165.8-168.3,277.3-126.7C647.9,506.1,704.6,630.3,663,741.9C621.4,853.4,497.3,910.1,385.7,868.5z"/></g>
</svg>